<svg width="37" height="36" viewBox="0 0 37 36" fill="none" xmlns="http://www.w3.org/2000/svg">
<path d="M18.5 0C8.28492 0 0 8.26325 0 18.455C0 26.6091 5.30025 33.5267 12.6525 35.9673C13.5759 36.1381 13.875 35.5659 13.875 35.08V31.6443C8.72892 32.7608 7.65746 29.4666 7.65746 29.4666C6.81571 27.3335 5.60242 26.766 5.60242 26.766C3.92354 25.6202 5.73037 25.6448 5.73037 25.6448C7.58808 25.774 8.5655 27.5472 8.5655 27.5472C10.2151 30.3678 12.893 29.5527 13.949 29.0805C14.114 27.8887 14.5934 27.0736 15.1238 26.6137C11.0152 26.1446 6.69546 24.5621 6.69546 17.4923C6.69546 15.4761 7.4185 13.8305 8.60096 12.5387C8.40979 12.0727 7.77617 10.1949 8.78133 7.65423C8.78133 7.65423 10.3353 7.15902 13.8704 9.54587C15.3457 9.13679 16.9275 8.93224 18.5 8.92455C20.0725 8.93224 21.6558 9.13679 23.1342 9.54587C26.6662 7.15902 28.2171 7.65423 28.2171 7.65423C29.2238 10.1964 28.5902 12.0742 28.399 12.5387C29.5861 13.8305 30.303 15.4776 30.303 17.4923C30.303 24.5806 25.9755 26.1416 21.8562 26.5983C22.5191 27.1704 23.125 28.2931 23.125 30.0156V35.08C23.125 35.5706 23.421 36.1473 24.3599 35.9658C31.7059 33.5221 37 26.606 37 18.455C37 8.26325 28.7166 0 18.5 0Z" fill="#F4F4F4"/>
</svg>
