<svg width="80" height="80" viewBox="0 0 80 80" fill="none" xmlns="http://www.w3.org/2000/svg">
<circle cx="40" cy="40" r="40" fill="#F4F4F4"/>
<circle cx="40" cy="40" r="30" fill="#F0A500"/>
<path d="M51.724 27.708C51.496 27.214 51.002 26.986 50.47 26.986C50.014 27.024 49.52 27.138 49.102 27.328C48.456 27.594 47.848 27.936 47.278 28.354C45.682 29.456 44.276 30.824 42.908 32.23C42.452 32.648 42.034 33.104 41.616 33.56C41.502 33.712 41.274 33.94 41.274 34.13C41.312 34.32 41.426 34.358 41.616 34.358C41.844 34.358 42.148 34.282 42.376 34.13C42.642 33.978 42.946 33.826 43.136 33.56C43.82 32.838 44.504 32.116 45.226 31.394C45.53 31.128 45.834 30.824 46.138 30.558C46.176 30.52 46.252 30.444 46.29 30.406L46.328 30.368C46.48 30.254 46.594 30.14 46.746 30.026C46.974 29.798 47.202 29.608 47.468 29.418C47.544 29.342 47.658 29.266 47.772 29.19C47.772 29.19 47.81 29.152 47.848 29.152C48 29.038 48.152 28.924 48.342 28.81C48.342 28.81 48.38 28.81 48.38 28.772C48.456 28.772 48.532 28.734 48.608 28.696C48.646 28.658 48.684 28.658 48.76 28.62H48.798C48.836 28.62 48.836 28.62 48.874 28.62C48.95 28.582 48.988 28.582 49.064 28.62C49.178 28.62 49.292 28.658 49.368 28.734C49.52 28.886 49.596 29.038 49.672 29.266C49.748 29.646 49.748 30.026 49.71 30.406C49.672 31.014 49.558 31.584 49.406 32.192C49.33 32.572 49.254 32.952 49.14 33.332C48.912 34.244 48.646 35.118 48.342 35.992C48 37.132 47.62 38.234 47.24 39.336C46.784 40.666 46.328 41.996 45.834 43.326C45.302 44.846 44.732 46.366 44.162 47.924C43.744 48.988 43.364 50.09 42.832 51.116C42.756 51.192 42.718 51.306 42.642 51.382C42.566 51.534 42.49 51.686 42.414 51.8C42.338 51.762 42.3 51.724 42.262 51.724C42.072 51.534 41.882 51.382 41.768 51.154C41.54 50.888 41.312 50.584 41.084 50.318C40.78 49.938 40.438 49.558 40.134 49.178C39.298 48.304 38.31 47.544 37.284 46.936C35.84 46.138 34.206 45.682 32.534 45.568C31.014 45.492 29.456 45.72 28.012 46.176C27.1 46.442 26.226 46.784 25.428 47.24C25.39 47.278 25.352 47.278 25.314 47.316C25.01 47.468 24.744 47.658 24.516 47.886C24.402 48 24.174 48.266 24.174 48.456C24.25 48.912 25.048 48.57 25.238 48.456C25.39 48.38 25.504 48.304 25.656 48.266C25.732 48.19 25.846 48.152 25.96 48.114C25.998 48.076 26.036 48.076 26.074 48.038C26.378 47.924 26.644 47.81 26.91 47.696C27.062 47.658 27.176 47.62 27.29 47.582C27.366 47.582 27.442 47.544 27.48 47.544C27.594 47.506 27.67 47.468 27.784 47.468C28.202 47.354 28.658 47.278 29.114 47.202C30.064 47.126 31.014 47.126 31.926 47.278C33.332 47.506 34.7 48.038 35.878 48.798C36.144 48.988 36.41 49.14 36.676 49.33C37.246 49.786 37.74 50.28 38.234 50.812C38.462 51.116 38.728 51.382 38.956 51.686C39.26 52.066 39.564 52.484 39.868 52.864C40.02 53.016 40.172 53.168 40.362 53.282C40.552 53.396 40.742 53.434 40.932 53.472C41.578 53.51 42.224 53.206 42.756 52.864C43.744 52.256 44.39 51.306 44.922 50.318C45.34 49.52 45.682 48.684 45.986 47.848C46.404 46.746 46.822 45.568 47.24 44.428C48 42.338 48.76 40.248 49.482 38.12C50.052 36.524 50.584 34.89 51.04 33.294C51.382 32.116 51.686 30.938 51.838 29.76C51.914 29.076 51.99 28.354 51.724 27.708Z" fill="black"/>
</svg>
